<?xml version="1.0" standalone="no"?>
<!DOCTYPE svg PUBLIC "-//W3C//DTD SVG 20010904//EN"
 "http://www.w3.org/TR/2001/REC-SVG-20010904/DTD/svg10.dtd">
<svg version="1.0" xmlns="http://www.w3.org/2000/svg"
 width="512.000000pt" height="512.000000pt" viewBox="0 0 512.000000 512.000000"
 preserveAspectRatio="xMidYMid meet">

<g transform="translate(0.000000,512.000000) scale(0.100000,-0.100000)"
fill="#000000" stroke="none">
<path d="M2519 4421 c-44 -14 -74 -39 -97 -80 l-22 -39 0 -998 0 -998 -202
201 c-219 217 -230 224 -315 208 -49 -9 -109 -69 -118 -118 -17 -90 -23 -83
363 -469 386 -386 378 -380 469 -363 33 5 84 52 395 363 386 386 380 379 363
469 -9 49 -69 109 -118 118 -85 16 -96 9 -314 -208 l-203 -201 0 994 c0 985 0
994 -21 1036 -32 67 -114 105 -180 85z"/>
<path d="M775 2056 c-22 -13 -49 -39 -60 -58 -19 -31 -20 -51 -20 -423 0 -375
1 -393 22 -460 60 -189 210 -339 398 -398 l70 -22 1375 0 c1306 0 1378 1 1434
18 97 30 172 73 243 141 79 74 134 162 166 261 21 67 22 85 22 460 l0 390 -24
38 c-61 99 -193 101 -265 3 -20 -26 -21 -43 -26 -409 -5 -376 -5 -383 -28
-429 -27 -54 -84 -109 -139 -135 -36 -17 -116 -18 -1383 -18 l-1345 0 -47 23
c-26 13 -64 42 -84 64 -69 77 -68 72 -74 495 -5 366 -6 383 -26 409 -54 73
-139 94 -209 50z"/>
</g>
</svg>
